<svg width="27" height="28" viewBox="0 0 27 28" fill="none" xmlns="http://www.w3.org/2000/svg">
<path d="M23.67 10.1529L17.0823 9.19547L14.1375 3.22529C14.057 3.06183 13.9247 2.92951 13.7612 2.84907C13.3513 2.6467 12.8531 2.81534 12.6482 3.22529L9.70329 9.19547L3.1156 10.1529C2.93398 10.1788 2.76793 10.2644 2.64079 10.3942C2.48709 10.5521 2.4024 10.7647 2.40532 10.9851C2.40824 11.2055 2.49853 11.4157 2.65636 11.5695L7.42264 16.2165L6.29658 22.7782C6.27018 22.9308 6.28707 23.0878 6.34534 23.2313C6.40361 23.3749 6.50094 23.4992 6.62628 23.5902C6.75161 23.6813 6.89995 23.7354 7.05446 23.7464C7.20898 23.7574 7.36349 23.7249 7.50048 23.6526L13.3928 20.5546L19.2851 23.6526C19.446 23.7382 19.6328 23.7667 19.8119 23.7356C20.2633 23.6578 20.5669 23.2297 20.489 22.7782L19.363 16.2165L24.1293 11.5695C24.259 11.4424 24.3446 11.2763 24.3706 11.0947C24.4406 10.6407 24.1241 10.2203 23.67 10.1529Z" fill="black"/>
</svg>
